<svg xmlns="http://www.w3.org/2000/svg" width="375" viewBox="0 0 375 375" height="375" version="1.0"><defs><clipPath id="a"><path d="M 112.5 112.5 L 262.5 112.5 L 262.5 262.5 L 112.5 262.5 Z M 112.5 112.5"/></clipPath></defs><g clip-path="url(#a)"><path transform="matrix(.33437 0 0 .33437 112.5 112.5)" fill="#FFF" d="M 430.539202 137.185178 C 419.26579 110.53787 403.132545 86.600854 382.583393 66.051702 C 362.034241 45.50255 338.085542 29.357622 311.438234 18.08421 C 283.84466 6.425283 254.533789 0.502361 224.311699 0.502361 C 194.08961 0.502361 164.790421 6.425283 137.185165 18.08421 C 110.537857 29.357622 86.612522 45.50255 66.051688 66.051702 C 45.490854 86.600854 29.357609 110.53787 18.084197 137.185178 C 6.425269 164.790435 0.502347 194.101306 0.502347 224.311713 C 0.502347 254.52212 6.425269 283.832991 18.084197 311.426565 C 29.357609 338.085556 45.502536 362.022572 66.051688 382.571724 C 86.60084 403.120876 110.537857 419.265804 137.185165 430.527533 C 164.778739 442.198143 194.101292 448.121065 224.311699 448.121065 C 254.522107 448.121065 283.832978 442.198143 311.426552 430.527533 C 338.085542 419.265804 362.022559 403.120876 382.571711 382.571724 C 403.120863 362.022572 419.26579 338.085556 430.52752 311.426565 C 442.19813 283.844674 448.121052 254.52212 448.121052 224.311713 C 448.121052 194.101306 442.209812 164.790435 430.539202 137.185178 Z M 224.311699 442.805622 C 103.832221 442.805622 5.806108 344.791191 5.806108 224.311713 C 5.806108 103.832234 103.832221 5.806121 224.311699 5.806121 C 344.791178 5.806121 442.805609 103.832234 442.805609 224.311713 C 442.805609 344.791191 344.791178 442.805622 224.311699 442.805622 Z M 224.311699 442.805622" stroke="#000" stroke-miterlimit="10"/></g><path transform="matrix(.33437 0 0 .33437 112.5 112.5)" fill="#FFF" d="M 264.872618 184.323227 L 265.059534 183.984441 L 264.685701 183.902665 C 263.91467 183.739112 263.155321 183.669019 262.431019 183.680701 C 258.56418 183.72743 255.187998 186.028842 254.393602 189.440071 L 254.323508 189.743811 L 254.627247 189.79054 C 258.786143 190.398019 262.617935 188.3653 264.872618 184.323227 Z M 262.652982 185.15267 C 260.281477 187.944738 257.255763 188.563899 256.134263 188.633993 C 258.096888 186.028842 261.379612 185.292857 262.652982 185.15267 Z M 262.652982 185.15267" stroke="#000" stroke-miterlimit="10"/><path transform="matrix(.33437 0 0 .33437 112.5 112.5)" fill="#FFF" d="M 346.63698 220.234593 C 344.172017 220.339734 342.139298 220.37478 340.573871 220.37478 C 338.985079 220.37478 336.940678 220.328051 334.40562 220.234593 C 331.882245 220.152817 328.985037 220.000947 325.725677 219.81403 L 325.725677 223.844421 L 338.704704 223.844421 C 338.365917 225.748635 338.027131 227.524343 337.700027 229.148182 C 337.36124 230.783703 336.940678 232.465953 336.438339 234.206614 C 335.924318 235.947276 335.375251 237.839807 334.744407 239.860844 C 334.125245 241.893563 333.365896 244.194974 332.46636 246.776761 L 311.21627 310.538711 L 278.844639 219.089728 L 272.945082 219.089728 L 241.064106 310.538711 L 211.764918 225.947234 C 212.524267 225.16452 213.20184 224.475265 213.715861 223.93788 C 213.750907 223.914515 213.774272 223.879468 213.809319 223.844421 L 223.85609 223.844421 L 223.85609 219.825713 C 221.61309 219.907489 219.52196 220.000947 217.594382 220.071041 C 218.108402 219.545338 218.634106 219.019635 219.136444 218.493931 C 220.550001 217.045327 222.02197 215.549994 223.505621 214.136436 C 223.809361 213.844379 237.547736 199.989181 241.811773 195.596639 C 242.71131 194.673738 243.984679 193.844295 245.585153 193.166722 C 248.16694 192.068587 250.678633 192.512514 252.851539 194.451774 C 254.008086 195.479816 254.650612 196.975149 254.615565 198.528894 C 254.568836 200.000863 253.92631 201.344327 252.839857 202.220499 C 251.916956 202.956483 250.748727 203.271905 249.69732 203.049941 C 248.926289 202.886389 248.31881 202.454144 247.991706 201.799936 C 247.629555 201.110681 247.60619 199.88404 247.956659 199.358337 L 247.980023 199.334972 L 247.991706 199.288243 C 248.260398 198.447118 249.054794 198.20179 249.860872 198.04992 C 250.024424 198.014873 250.480034 198.295248 250.760409 198.470483 C 251.075831 198.657399 251.391253 198.844316 251.636581 198.902728 L 252.255742 199.031233 L 251.963685 198.482165 C 251.391253 197.454123 250.701997 196.82328 249.884237 196.624681 C 249.101523 196.414399 248.225351 196.624681 247.314133 197.208795 C 246.508054 197.722816 245.947304 198.552259 245.737023 199.545254 C 245.503377 200.655071 245.725341 201.834983 246.344502 202.792931 C 247.115534 203.984525 248.342174 204.743874 249.779096 204.93079 C 251.37957 205.141072 253.026773 204.592004 254.300143 203.435457 C 255.86557 202.0219 256.624919 199.965816 256.414638 197.781228 C 256.192675 195.433087 254.825846 193.295227 252.769763 192.056904 C 252.279107 191.764847 251.776768 191.519519 251.251065 191.250826 C 251.110878 191.180732 250.959008 191.110639 250.807138 191.028863 C 250.853867 190.982134 250.877232 190.935404 250.912279 190.888675 C 251.087513 190.655029 251.251065 190.444748 251.391253 190.222785 C 252.629576 188.318571 252.617893 186.332581 251.356206 184.451732 C 250.328164 182.921352 248.797784 182.138638 246.89357 182.173685 C 246.519737 182.185368 246.134221 182.208732 245.748705 182.267144 C 243.739351 182.594248 242.606169 184.077899 242.804768 186.133982 C 242.874862 186.951743 243.330471 187.734456 244.054773 188.295206 C 244.860851 188.914368 245.865528 189.171378 246.800112 189.007826 C 247.874883 188.832592 248.57582 188.435394 248.9847 187.839597 C 249.405263 187.220435 249.498721 186.390993 249.265075 185.30454 L 249.113206 184.59192 C 249.218346 184.673696 249.323487 184.755472 249.416945 184.860612 C 250.00106 185.444727 250.363211 186.250805 250.398258 187.09193 C 250.491716 189.054555 249.405263 190.374654 247.442638 190.725123 C 244.4987 191.239144 241.975325 192.641019 239.510362 195.14103 C 233.54071 201.192457 225.655163 209.264921 218.026626 217.05701 C 211.204168 224.054703 204.136381 231.274359 198.739162 236.765036 L 198.57561 236.928588 L 198.704115 237.115505 L 198.505516 237.314104 L 231.963601 333.751425 L 237.863158 333.751425 L 269.744133 240.480005 L 302.290999 333.751425 L 307.688218 333.751425 L 336.69535 248.120224 C 337.81685 244.860865 338.856574 242.03375 339.814522 239.615516 C 340.77247 237.185599 341.648641 235.059422 342.443037 233.201937 C 343.225751 231.344453 343.9851 229.662203 344.721084 228.143505 C 345.445386 226.624807 346.263147 225.187885 347.162683 223.844421 L 355.258512 223.844421 L 355.258512 219.81403 C 351.975788 220.000947 349.113626 220.141135 346.63698 220.234593 Z M 248.704325 185.281175 C 248.342174 186.507816 247.676284 186.905014 247.489367 186.998472 C 246.811794 187.325576 246.391232 187.313894 245.760388 186.928378 L 245.713659 186.905014 L 245.643565 186.905014 C 245.433284 186.83492 244.965992 186.145665 244.90758 185.86529 L 244.930945 185.853607 L 244.930945 185.736784 C 244.95431 184.18304 246.765065 184.019487 247.127216 183.996123 C 247.793107 183.972758 248.412268 184.13631 248.937971 184.486779 Z M 248.704325 185.281175" stroke="#000" stroke-miterlimit="10"/><path transform="matrix(.33437 0 0 .33437 112.5 112.5)" fill="#FFF" d="M 129.61504 263.505803 L 129.428123 263.844589 L 129.813639 263.926365 C 130.572988 264.089918 131.332337 264.160011 132.056639 264.148329 C 135.923477 264.1016 139.29966 261.800188 140.105738 258.388959 L 140.175832 258.085219 L 139.86041 258.03849 C 135.701514 257.431011 131.869722 259.475412 129.61504 263.505803 Z M 131.834675 262.67636 C 134.20618 259.884292 137.231894 259.265131 138.353394 259.195037 C 136.379087 261.800188 133.096363 262.52449 131.834675 262.67636 Z M 131.834675 262.67636" stroke="#000" stroke-miterlimit="10"/><path transform="matrix(.33437 0 0 .33437 112.5 112.5)" fill="#FFF" d="M 200.10599 115.304245 C 197.290558 115.421068 194.954099 115.47948 193.108297 115.47948 C 191.145672 115.47948 188.762485 115.421068 185.93537 115.304245 C 183.119937 115.17574 179.860578 115.000506 176.180656 114.755178 L 176.180656 118.937438 L 189.311552 118.937438 C 189.545198 120.666417 189.767162 122.605678 190.000808 124.731855 C 190.234453 126.858032 190.433052 129.019256 190.608287 131.215527 C 190.783521 133.400116 190.935391 135.56134 191.040532 137.687517 C 191.145672 139.825376 191.215766 141.694543 191.215766 143.306699 L 191.215766 204.837332 L 127.278581 114.755178 C 123.820623 115.000506 120.713133 115.17574 117.94443 115.304245 C 115.187409 115.421068 113.049549 115.47948 111.554216 115.47948 C 109.264487 115.47948 106.659336 115.421068 103.785492 115.304245 C 100.899966 115.17574 97.442007 115.000506 93.411616 114.755178 L 93.411616 118.937438 L 108.096258 118.937438 L 108.096258 202.465827 C 108.096258 206.5079 108.014481 210.538291 107.850929 214.580364 C 107.687377 218.622437 107.383638 222.652827 106.951393 226.683218 L 93.458346 226.683218 L 93.458346 230.713609 C 97.25509 230.51501 100.572861 230.374823 103.388294 230.281364 C 106.215409 230.187906 108.575232 230.141177 110.514492 230.141177 C 112.325247 230.141177 114.661706 230.187906 117.477138 230.281364 C 120.304253 230.374823 123.563612 230.51501 127.255217 230.713609 L 127.255217 226.683218 L 114.813576 226.683218 C 114.12432 222.991614 113.575253 219.078046 113.166372 214.930832 C 112.757492 210.783619 112.558893 206.624723 112.558893 202.477509 L 112.558893 122.103339 L 182.594234 221.998619 C 181.893297 222.734603 181.274135 223.365447 180.771797 223.89115 C 180.094224 224.592088 179.603568 225.094426 179.545156 225.152838 C 178.108234 226.519666 176.706359 227.944906 175.351213 229.335099 C 173.937656 230.783703 172.465687 232.279036 170.993718 233.692593 C 170.678296 233.984651 156.939921 247.839849 152.675884 252.232391 C 151.776348 253.155292 150.51466 253.984735 148.902504 254.662308 C 146.320717 255.760443 143.809025 255.316516 141.636118 253.377256 C 140.479571 252.349214 139.837045 250.865563 139.883774 249.300136 C 139.918821 247.828167 140.561347 246.484703 141.6478 245.608531 C 142.570702 244.872547 143.738931 244.557125 144.790337 244.779089 C 145.561368 244.942641 146.168848 245.374886 146.495952 246.029094 C 146.858103 246.718349 146.881467 247.94499 146.530999 248.470693 L 146.507634 248.50574 L 146.495952 248.540787 C 146.227259 249.381912 145.444545 249.62724 144.626785 249.77911 C 144.474915 249.814157 144.007623 249.533782 143.727248 249.358547 C 143.411827 249.171631 143.096405 248.984714 142.851077 248.926302 L 142.231915 248.797797 L 142.535655 249.346865 C 143.096405 250.374907 143.78566 251.00575 144.60342 251.204349 C 145.386134 251.414631 146.262306 251.204349 147.185207 250.620235 C 147.979603 250.106214 148.540353 249.276771 148.750634 248.283776 C 148.98428 247.173959 148.773999 245.994047 148.154837 245.036099 C 147.372124 243.844505 146.145483 243.085156 144.708561 242.89824 C 143.108087 242.687958 141.460884 243.237026 140.187514 244.393573 C 138.633769 245.80713 137.862738 247.874896 138.073019 250.047802 C 138.294983 252.395943 139.661811 254.545485 141.717894 255.772126 C 142.208551 256.064183 142.710889 256.309511 143.236592 256.578204 C 143.37678 256.648297 143.52865 256.718391 143.680519 256.800167 C 143.645472 256.846896 143.610426 256.893626 143.575379 256.940355 C 143.400144 257.185683 143.236592 257.384282 143.096405 257.606245 C 141.858082 259.510459 141.869764 261.496449 143.131452 263.377298 C 144.159493 264.907678 145.689874 265.690392 147.605769 265.655345 C 147.967921 265.655345 148.353436 265.620298 148.738952 265.561886 C 150.748306 265.234782 151.881488 263.751131 151.694572 261.695048 C 151.624478 260.877287 151.157186 260.094574 150.432884 259.533824 C 149.626806 258.914662 148.633811 258.657652 147.687546 258.821204 C 146.624457 258.996438 145.911837 259.393636 145.502957 259.989433 C 145.082394 260.608595 144.988936 261.438037 145.234264 262.52449 L 145.374452 263.23711 C 145.269311 263.155334 145.175853 263.073558 145.070712 262.968418 C 144.486597 262.384303 144.124446 261.578225 144.0894 260.7371 C 143.995941 258.774475 145.082394 257.454376 147.045019 257.103907 C 149.988957 256.589886 152.512332 255.188011 154.977296 252.688 C 160.946947 246.636573 168.832494 238.575792 176.461031 230.77202 C 183.049844 224.031338 190.152677 216.764952 195.46812 211.356051 C 195.514849 210.865395 195.526532 209.884082 195.526532 209.884082 L 195.526532 143.283335 C 195.526532 140.514632 195.561579 138.131444 195.61999 136.110407 C 195.678402 134.089371 195.725131 132.220204 195.795224 130.491225 C 195.853636 128.762246 195.958777 127.009902 196.145693 125.222511 C 196.309245 123.435121 196.566256 121.332308 196.916724 118.914073 L 209.884069 118.914073 L 209.884069 114.731813 C 206.192464 115.000506 202.933105 115.17574 200.10599 115.304245 Z M 145.795014 262.547855 C 146.145483 261.321214 146.811374 260.924016 146.99829 260.830558 C 147.675863 260.515136 148.096426 260.515136 148.72727 260.900652 L 148.785681 260.935699 L 148.855775 260.935699 C 149.054374 260.99411 149.521665 261.695048 149.580077 261.96374 L 149.556712 261.975423 L 149.556712 262.092246 C 149.54503 263.64599 147.722592 263.809543 147.360441 263.832907 C 146.694551 263.856272 146.075389 263.69272 145.549686 263.342251 Z M 145.795014 262.547855" stroke="#000" stroke-miterlimit="10"/></svg>